<svg xmlns="http://www.w3.org/2000/svg" width="15.955" height="15.955" viewBox="0 0 15.955 15.955">
  <g id="calendar" transform="translate(0 0)">
    <g id="Group_22" data-name="Group 22">
      <g id="Group_21" data-name="Group 21">
        <path id="Path_20" data-name="Path 20" d="M14.085,1.246h-.748V0H12.091V1.246H3.864V0H2.618V1.246H1.87A1.872,1.872,0,0,0,0,3.116V14.085a1.872,1.872,0,0,0,1.87,1.87H14.085a1.872,1.872,0,0,0,1.87-1.87V3.116A1.872,1.872,0,0,0,14.085,1.246Zm.623,12.839a.624.624,0,0,1-.623.623H1.87a.624.624,0,0,1-.623-.623V5.858H14.708Zm0-9.473H1.246v-1.5a.624.624,0,0,1,.623-.623h.748V3.739H3.864V2.493h8.227V3.739h1.246V2.493h.748a.624.624,0,0,1,.623.623Z" fill="#fff684"/>
      </g>
    </g>
    <g id="Group_24" data-name="Group 24" transform="translate(2.368 7.167)">
      <g id="Group_23" data-name="Group 23">
        <rect id="Rectangle_41" data-name="Rectangle 41" width="1.246" height="1.246" fill="#fff684"/>
      </g>
    </g>
    <g id="Group_26" data-name="Group 26" transform="translate(4.861 7.167)">
      <g id="Group_25" data-name="Group 25">
        <rect id="Rectangle_42" data-name="Rectangle 42" width="1.246" height="1.246" fill="#fff684"/>
      </g>
    </g>
    <g id="Group_28" data-name="Group 28" transform="translate(7.354 7.167)">
      <g id="Group_27" data-name="Group 27">
        <rect id="Rectangle_43" data-name="Rectangle 43" width="1.246" height="1.246" fill="#fff684"/>
      </g>
    </g>
    <g id="Group_30" data-name="Group 30" transform="translate(9.847 7.167)">
      <g id="Group_29" data-name="Group 29">
        <rect id="Rectangle_44" data-name="Rectangle 44" width="1.246" height="1.246" fill="#fff684"/>
      </g>
    </g>
    <g id="Group_32" data-name="Group 32" transform="translate(12.34 7.167)">
      <g id="Group_31" data-name="Group 31">
        <rect id="Rectangle_45" data-name="Rectangle 45" width="1.246" height="1.246" fill="#fff684"/>
      </g>
    </g>
    <g id="Group_34" data-name="Group 34" transform="translate(2.368 9.66)">
      <g id="Group_33" data-name="Group 33">
        <rect id="Rectangle_46" data-name="Rectangle 46" width="1.246" height="1.246" fill="#fff684"/>
      </g>
    </g>
    <g id="Group_36" data-name="Group 36" transform="translate(4.861 9.66)">
      <g id="Group_35" data-name="Group 35">
        <rect id="Rectangle_47" data-name="Rectangle 47" width="1.246" height="1.246" fill="#fff684"/>
      </g>
    </g>
    <g id="Group_38" data-name="Group 38" transform="translate(7.354 9.66)">
      <g id="Group_37" data-name="Group 37">
        <rect id="Rectangle_48" data-name="Rectangle 48" width="1.246" height="1.246" fill="#fff684"/>
      </g>
    </g>
    <g id="Group_40" data-name="Group 40" transform="translate(9.847 9.66)">
      <g id="Group_39" data-name="Group 39">
        <rect id="Rectangle_49" data-name="Rectangle 49" width="1.246" height="1.246" fill="#fff684"/>
      </g>
    </g>
    <g id="Group_42" data-name="Group 42" transform="translate(2.368 12.153)">
      <g id="Group_41" data-name="Group 41">
        <rect id="Rectangle_50" data-name="Rectangle 50" width="1.246" height="1.246" fill="#fff684"/>
      </g>
    </g>
    <g id="Group_44" data-name="Group 44" transform="translate(4.861 12.153)">
      <g id="Group_43" data-name="Group 43">
        <rect id="Rectangle_51" data-name="Rectangle 51" width="1.246" height="1.246" fill="#fff684"/>
      </g>
    </g>
    <g id="Group_46" data-name="Group 46" transform="translate(7.354 12.153)">
      <g id="Group_45" data-name="Group 45">
        <rect id="Rectangle_52" data-name="Rectangle 52" width="1.246" height="1.246" fill="#fff684"/>
      </g>
    </g>
    <g id="Group_48" data-name="Group 48" transform="translate(9.847 12.153)">
      <g id="Group_47" data-name="Group 47">
        <rect id="Rectangle_53" data-name="Rectangle 53" width="1.246" height="1.246" fill="#fff684"/>
      </g>
    </g>
    <g id="Group_50" data-name="Group 50" transform="translate(12.34 9.66)">
      <g id="Group_49" data-name="Group 49">
        <rect id="Rectangle_54" data-name="Rectangle 54" width="1.246" height="1.246" fill="#fff684"/>
      </g>
    </g>
  </g>
</svg>
