<svg id="collaboration" xmlns="http://www.w3.org/2000/svg" width="56.417" height="56.417" viewBox="0 0 56.417 56.417">
  <g id="Group_63" data-name="Group 63" transform="translate(22.567)">
    <g id="Group_62" data-name="Group 62">
      <path id="Path_47" data-name="Path 47" d="M197.642,0a5.642,5.642,0,1,0,5.642,5.642A5.642,5.642,0,0,0,197.642,0Zm0,9.4A3.761,3.761,0,1,1,201.4,5.642,3.761,3.761,0,0,1,197.642,9.4Z" transform="translate(-192)" fill="#fff"/>
    </g>
  </g>
  <g id="Group_65" data-name="Group 65" transform="translate(19.746 12.224)">
    <g id="Group_64" data-name="Group 64">
      <path id="Path_48" data-name="Path 48" d="M180.224,104H180l-.2.1a7.5,7.5,0,0,1-6.682,0l-.2-.1H172.7a4.707,4.707,0,0,0-4.7,4.7v5.642a2.821,2.821,0,0,0,2.821,2.821H182.1a2.821,2.821,0,0,0,2.821-2.821V108.7A4.707,4.707,0,0,0,180.224,104Zm2.821,10.343a.94.94,0,0,1-.94.94H170.821a.94.94,0,0,1-.94-.94V108.7a2.821,2.821,0,0,1,2.621-2.813,9.41,9.41,0,0,0,7.923,0,2.821,2.821,0,0,1,2.621,2.813Z" transform="translate(-168 -104)" fill="#fff"/>
    </g>
  </g>
  <g id="Group_67" data-name="Group 67" transform="translate(42.313 31.029)">
    <g id="Group_66" data-name="Group 66">
      <path id="Path_49" data-name="Path 49" d="M365.642,264a5.642,5.642,0,1,0,5.642,5.642A5.642,5.642,0,0,0,365.642,264Zm0,9.4a3.761,3.761,0,1,1,3.761-3.761A3.761,3.761,0,0,1,365.642,273.4Z" transform="translate(-360 -264)" fill="#fff"/>
    </g>
  </g>
  <g id="Group_69" data-name="Group 69" transform="translate(39.492 43.253)">
    <g id="Group_68" data-name="Group 68">
      <path id="Path_50" data-name="Path 50" d="M348.224,368H348l-.2.094a7.5,7.5,0,0,1-6.682,0l-.2-.094H340.7a4.707,4.707,0,0,0-4.7,4.7v5.642a2.821,2.821,0,0,0,2.821,2.821H350.1a2.821,2.821,0,0,0,2.821-2.821V372.7A4.707,4.707,0,0,0,348.224,368Zm2.821,10.343a.94.94,0,0,1-.94.94H338.821a.94.94,0,0,1-.94-.94V372.7a2.821,2.821,0,0,1,2.621-2.813,9.41,9.41,0,0,0,7.923,0,2.821,2.821,0,0,1,2.621,2.813Z" transform="translate(-336 -368)" fill="#fff"/>
    </g>
  </g>
  <g id="Group_71" data-name="Group 71" transform="translate(2.821 31.029)">
    <g id="Group_70" data-name="Group 70">
      <path id="Path_51" data-name="Path 51" d="M29.642,264a5.642,5.642,0,1,0,5.642,5.642A5.642,5.642,0,0,0,29.642,264Zm0,9.4a3.761,3.761,0,1,1,3.761-3.761A3.761,3.761,0,0,1,29.642,273.4Z" transform="translate(-24 -264)" fill="#fff"/>
    </g>
  </g>
  <g id="Group_73" data-name="Group 73" transform="translate(0 43.253)">
    <g id="Group_72" data-name="Group 72">
      <path id="Path_52" data-name="Path 52" d="M12.224,368H12l-.2.094a7.5,7.5,0,0,1-6.682,0l-.2-.094H4.7A4.707,4.707,0,0,0,0,372.7v5.642a2.821,2.821,0,0,0,2.821,2.821H14.1a2.821,2.821,0,0,0,2.821-2.821V372.7A4.707,4.707,0,0,0,12.224,368Zm2.821,10.343a.94.94,0,0,1-.94.94H2.821a.94.94,0,0,1-.94-.94V372.7A2.821,2.821,0,0,1,4.5,369.888a9.41,9.41,0,0,0,7.923,0,2.821,2.821,0,0,1,2.621,2.813Z" transform="translate(0 -368)" fill="#fff"/>
    </g>
  </g>
  <g id="Group_75" data-name="Group 75" transform="translate(18.805 46.074)">
    <g id="Group_74" data-name="Group 74">
      <path id="Path_53" data-name="Path 53" d="M178.73,393.674v0a.94.94,0,0,0-1.234-.5h0a20.857,20.857,0,0,1-13.411.923l.88-.259a.941.941,0,1,0-.528-1.805l-3.761,1.1c-.014,0-.024.016-.038.021a.931.931,0,0,0-.243.134.82.82,0,0,0-.094.059.911.911,0,0,0-.23.32.942.942,0,0,0-.071.388,2.9,2.9,0,0,0,.094.376c.006.013,0,.028.01.041l1.881,3.6a.941.941,0,1,0,1.668-.871l-.765-1.463a22.633,22.633,0,0,0,15.345-.835A.94.94,0,0,0,178.73,393.674Z" transform="translate(-159.998 -391.995)" fill="#fff"/>
    </g>
  </g>
  <g id="Group_77" data-name="Group 77" transform="translate(35.731 7.36)">
    <g id="Group_76" data-name="Group 76">
      <path id="Path_54" data-name="Path 54" d="M321.588,79.984a.94.94,0,0,0-1.33,0l-1.331,1.331A22.533,22.533,0,0,0,305.307,62.7a.94.94,0,1,0-.737,1.73,20.655,20.655,0,0,1,12.437,16.618l-1.061-1.061a.94.94,0,0,0-1.33,1.33l2.821,2.821a.94.94,0,0,0,1.33,0l0,0,2.821-2.821A.94.94,0,0,0,321.588,79.984Z" transform="translate(-303.998 -62.622)" fill="#fff"/>
    </g>
  </g>
  <g id="Group_79" data-name="Group 79" transform="translate(5.642 5.658)">
    <g id="Group_78" data-name="Group 78">
      <path id="Path_55" data-name="Path 55" d="M63.017,50.619a.875.875,0,0,0-.024-.163c0-.008-.01-.014-.014-.024s0-.016,0-.024a.9.9,0,0,0-.088-.13.949.949,0,0,0-.107-.155A.883.883,0,0,0,62.6,50a.827.827,0,0,0-.105-.076l-3.761-1.718a.94.94,0,0,0-.78,1.709l1.947.89A22.532,22.532,0,0,0,48,70.686a.94.94,0,0,0,1.881,0A20.654,20.654,0,0,1,60.057,52.873l-.68,1.421a.94.94,0,0,0,.439,1.253.926.926,0,0,0,.407.094.94.94,0,0,0,.846-.533l1.881-3.924a.043.043,0,0,1,.008-.029.9.9,0,0,0,.051-.2.974.974,0,0,0,.036-.155A.938.938,0,0,0,63.017,50.619Z" transform="translate(-48 -48.134)" fill="#fff"/>
    </g>
  </g>
</svg>
