<svg xmlns="http://www.w3.org/2000/svg" width="62.33" height="56" viewBox="0 0 62.33 56">
  <g id="speech-bubble" transform="translate(-7)">
    <path id="Path_38" data-name="Path 38" d="M247.217,100a1.217,1.217,0,1,0,1.217,1.217A1.218,1.218,0,0,0,247.217,100Zm0,0" transform="translate(-216.052 -87.826)" fill="#fff"/>
    <path id="Path_39" data-name="Path 39" d="M81.217,262.435A1.217,1.217,0,1,0,80,261.217,1.218,1.218,0,0,0,81.217,262.435Zm0,0" transform="translate(-70.261 -228.348)" fill="#fff"/>
    <path id="Path_40" data-name="Path 40" d="M40.9,0C29.945,0,20.949,7.556,20.253,17.074,9.816,17.6,0,25.124,0,35.3A17.011,17.011,0,0,0,4.748,46.947a7.4,7.4,0,0,1-1.956,6.975A1.217,1.217,0,0,0,3.652,56a13.429,13.429,0,0,0,9.3-3.761,27.742,27.742,0,0,0,8.47,1.326c10.958,0,19.953-7.554,20.65-17.071a27.375,27.375,0,0,0,7.3-1.3,13.429,13.429,0,0,0,9.3,3.761,1.217,1.217,0,0,0,.861-2.078A7.4,7.4,0,0,1,57.583,29.9a17.011,17.011,0,0,0,4.748-11.642C62.331,7.683,51.759,0,40.9,0ZM21.426,51.13a24.61,24.61,0,0,1-8.341-1.437A1.217,1.217,0,0,0,11.737,50a10.985,10.985,0,0,1-5.464,3.242A9.845,9.845,0,0,0,7.016,46a1.215,1.215,0,0,0-.3-.515A14.63,14.63,0,0,1,2.435,35.3c0-8.579,8.7-15.826,18.991-15.826,9.721,0,18.261,6.76,18.261,15.826C39.687,44.031,31.5,51.13,21.426,51.13ZM55.612,28.441a1.221,1.221,0,0,0-.3.515,9.845,9.845,0,0,0,.742,7.246,10.981,10.981,0,0,1-5.464-3.242,1.218,1.218,0,0,0-1.349-.309,23.982,23.982,0,0,1-7.172,1.406,17.426,17.426,0,0,0-6.578-12.143H51.374a1.217,1.217,0,1,0,0-2.435H31.754a22.7,22.7,0,0,0-9.06-2.4c.7-8.177,8.6-14.644,18.21-14.644C51.2,2.435,59.9,9.682,59.9,18.261A14.63,14.63,0,0,1,55.612,28.441Zm0,0" transform="translate(7)" fill="#fff"/>
    <path id="Path_41" data-name="Path 41" d="M136.557,260H121.217a1.217,1.217,0,0,0,0,2.435h15.339a1.217,1.217,0,0,0,0-2.435Zm0,0" transform="translate(-105.391 -228.348)" fill="#fff"/>
    <path id="Path_42" data-name="Path 42" d="M101.426,320H81.217a1.217,1.217,0,1,0,0,2.435h20.209a1.217,1.217,0,0,0,0-2.435Zm0,0" transform="translate(-70.261 -281.043)" fill="#fff"/>
    <path id="Path_43" data-name="Path 43" d="M302.557,100H287.217a1.217,1.217,0,1,0,0,2.435h15.339a1.217,1.217,0,1,0,0-2.435Zm0,0" transform="translate(-251.183 -87.826)" fill="#fff"/>
  </g>
</svg>
