<svg xmlns="http://www.w3.org/2000/svg" width="70.467" height="44.742" viewBox="0 0 70.467 44.742">
  <g id="Group_80" data-name="Group 80" transform="translate(0 0)">
    <path id="Path_56" data-name="Path 56" d="M60.944,111.937a8.045,8.045,0,1,0-9.23,0,13.939,13.939,0,0,0-4.754,2.789,18.037,18.037,0,0,0-6.525-3.555,10.192,10.192,0,1,0-10.541,0,18.187,18.187,0,0,0-6.456,3.514,14.052,14.052,0,0,0-4.7-2.733,8.045,8.045,0,1,0-9.23,0A14.122,14.122,0,0,0,0,125.294v.92a.06.06,0,0,0,.056.056H17.108a18.753,18.753,0,0,0-.153,2.356v.948a7.414,7.414,0,0,0,7.418,7.418H45.983a7.414,7.414,0,0,0,7.418-7.418v-.948a18.752,18.752,0,0,0-.153-2.356H70.411a.06.06,0,0,0,.056-.056v-.92A14.176,14.176,0,0,0,60.944,111.937Zm-10.429-6.595a5.814,5.814,0,1,1,5.926,5.814h-.223A5.806,5.806,0,0,1,50.515,105.342Zm-23.34-2.9A7.961,7.961,0,1,1,35.6,110.39h-.92A7.973,7.973,0,0,1,27.174,102.442Zm-18.906,2.9a5.814,5.814,0,1,1,5.926,5.814h-.223A5.815,5.815,0,0,1,8.268,105.342Zm9.23,18.683H2.259A11.913,11.913,0,0,1,14,113.387h.167a11.789,11.789,0,0,1,7.6,2.83A18.307,18.307,0,0,0,17.5,124.026Zm33.644,5.549a5.2,5.2,0,0,1-5.187,5.187H24.344a5.2,5.2,0,0,1-5.187-5.187v-.948a16.016,16.016,0,0,1,15.518-15.992c.153.014.321.014.474.014s.321,0,.474-.014a16.016,16.016,0,0,1,15.518,15.992Zm1.659-5.549a18.258,18.258,0,0,0-4.225-7.752,11.846,11.846,0,0,1,7.669-2.886h.167a11.913,11.913,0,0,1,11.74,10.638Z" transform="translate(0 -92.25)" fill="#fff"/>
  </g>
</svg>
