<svg xmlns="http://www.w3.org/2000/svg" width="54.611" height="58.734" viewBox="0 0 54.611 58.734">
  <g id="Group_61" data-name="Group 61" transform="translate(0 0)">
    <path id="Path_44" data-name="Path 44" d="M36.943,327.492a1.675,1.675,0,0,0-2.354.336,14.573,14.573,0,0,1-11.723,5.843H18.232a1.682,1.682,0,0,0,0,3.364h4.647a17.838,17.838,0,0,0,8.172-1.956,18.031,18.031,0,0,0,6.229-5.232A1.688,1.688,0,0,0,36.943,327.492Z" transform="translate(-16.55 -286.397)" fill="#fff"/>
    <path id="Path_45" data-name="Path 45" d="M213.777,17.45a1.7,1.7,0,0,0,2.367-.3A14.569,14.569,0,0,1,227.73,11.47h9.779l-5.22,5.22a1.688,1.688,0,0,0,1.183,2.878,1.641,1.641,0,0,0,1.183-.5l8.1-8.1a1.677,1.677,0,0,0,0-2.379l-8.1-8.1a1.682,1.682,0,0,0-2.379,2.379l5.22,5.22h-9.779a17.92,17.92,0,0,0-14.251,6.989A1.71,1.71,0,0,0,213.777,17.45Z" transform="translate(-188.638 0)" fill="#fff"/>
    <path id="Path_46" data-name="Path 46" d="M63.106,96.643a1.682,1.682,0,0,0-2.379,2.379l5.22,5.22H56.167A14.679,14.679,0,0,1,41.5,89.579V83.1A18.045,18.045,0,0,0,23.478,65.075H18.832a1.682,1.682,0,1,0,0,3.364h4.647A14.679,14.679,0,0,1,38.141,83.1v6.478a18.045,18.045,0,0,0,18.026,18.026h9.779l-5.22,5.22A1.688,1.688,0,0,0,61.91,115.7a1.641,1.641,0,0,0,1.183-.5l8.1-8.1a1.677,1.677,0,0,0,0-2.379Z" transform="translate(-17.075 -56.968)" fill="#fff"/>
  </g>
</svg>
