<svg xmlns="http://www.w3.org/2000/svg" width="54.586" height="54.586" viewBox="0 0 54.586 54.586">
  <g id="Group_60" data-name="Group 60" transform="translate(0 0)">
    <g id="Group_59" data-name="Group 59">
      <path id="Path_24" data-name="Path 24" d="M36.874,30.049a28.549,28.549,0,0,1,6.072-2.059A1.066,1.066,0,1,0,42.5,25.9,30.992,30.992,0,0,0,35.5,28.342c-1.312-1.564-2.813-3.2-4.433-4.82-1.721-1.721-3.461-3.31-5.113-4.678A24.088,24.088,0,0,0,29.43,12.8,31.6,31.6,0,0,0,31.5,1.065a1.066,1.066,0,0,0-2.132,0c0,6.671-1.711,12.192-5.088,16.453-.637-.486-1.255-.933-1.846-1.331-3.16-2.131-5.042-2.631-6.094-1.616l-.022.021,0,0,0,0a1.754,1.754,0,0,0-.5.986L.083,53.107a1.066,1.066,0,0,0,1.4,1.4h0L39,38.766a1.752,1.752,0,0,0,.914-.433c.019-.015.036-.032.053-.048l.021-.019,0,0,.021-.023c1.014-1.052.515-2.934-1.617-6.093C37.948,31.479,37.436,30.776,36.874,30.049ZM8.456,46.99A7.173,7.173,0,0,1,7.5,49.665L3.057,51.528,7.57,40.767A11.846,11.846,0,0,1,8.456,46.99Zm6.561-3.607a6.831,6.831,0,0,1-1.894,3.925l-2.809,1.178c.625-2.223.789-5.753-1.625-10.385l3.2-7.619C15.2,36.767,15.447,40.931,15.017,43.383Zm3.8,1.535-2.3.964a10.763,10.763,0,0,0,.552-1.9c.853-4.355-.54-9.741-4.138-16.012l1.154-2.751a18.1,18.1,0,0,1,2.375,3.634,1.066,1.066,0,1,0,1.959-.842A20.23,20.23,0,0,0,15,23.05l1.763-4.2c.309.566.691,1.186,1.15,1.866q.474.7,1.034,1.453A20.051,20.051,0,0,1,21.8,37.143,21.65,21.65,0,0,1,18.82,44.918Zm8.215-3.445L21.973,43.6a26.874,26.874,0,0,0,1.919-6.057,23.182,23.182,0,0,0-.2-9.8q.758.8,1.558,1.6c1.595,1.595,3.2,3.074,4.746,4.371C29.84,38.743,27.532,41.037,27.034,41.473Zm3.675-1.541a14.4,14.4,0,0,0,1.3-4.6c.644.491,1.268.943,1.863,1.344.68.459,1.3.841,1.867,1.15Zm3.75-5.445a63.172,63.172,0,0,1-7.7-6.657,63.162,63.162,0,0,1-6.657-7.7,12.424,12.424,0,0,1-2.129-3.882,12.43,12.43,0,0,1,3.882,2.129c.332.236.674.487,1.022.751-.075.077-.149.155-.225.231a1.066,1.066,0,1,0,1.508,1.508q.2-.2.4-.407c1.617,1.337,3.327,2.9,5,4.574,1.441,1.441,2.8,2.907,4,4.318q-.289.16-.577.327a1.066,1.066,0,1,0,1.066,1.847c.3-.171.592-.335.888-.5.463.588.893,1.16,1.281,1.708a12.422,12.422,0,0,1,2.129,3.882A12.43,12.43,0,0,1,34.459,34.487Z" transform="translate(0 0.001)" fill="#fff"/>
      <path id="Path_25" data-name="Path 25" d="M163.8,283.262a1.07,1.07,0,1,0,.036.092C163.827,283.325,163.813,283.29,163.8,283.262Z" transform="translate(-144.516 -252.501)" fill="#fff"/>
      <path id="Path_26" data-name="Path 26" d="M370.817,105.839a1.066,1.066,0,0,0,1.508,0c2.382-2.382,6.241-3.474,9.059-3.7a1.066,1.066,0,0,0-.172-2.125c-3.2.258-7.6,1.528-10.4,4.319A1.066,1.066,0,0,0,370.817,105.839Z" transform="translate(-331.003 -89.347)" fill="#fff"/>
      <path id="Path_27" data-name="Path 27" d="M492.724,101.5l-.092-.024a1.066,1.066,0,1,0-.515,2.069l.054.014a1.066,1.066,0,1,0,.553-2.059Z" transform="translate(-438.928 -90.625)" fill="#fff"/>
      <path id="Path_28" data-name="Path 28" d="M64.57,47.886h1.066v1.066a1.066,1.066,0,1,0,2.132,0V47.886h1.066a1.066,1.066,0,1,0,0-2.132H67.769V44.687a1.066,1.066,0,1,0-2.132,0v1.066H64.57a1.066,1.066,0,1,0,0,2.132Z" transform="translate(-56.734 -38.97)" fill="#fff"/>
      <path id="Path_29" data-name="Path 29" d="M298.568,144.884h1.066v1.066a1.066,1.066,0,0,0,2.132,0v-1.066h1.066a1.066,1.066,0,1,0,0-2.132h-1.066v-1.066a1.066,1.066,0,0,0-2.132,0v1.066h-1.066a1.066,1.066,0,0,0,0,2.132Z" transform="translate(-265.784 -125.627)" fill="#fff"/>
      <path id="Path_30" data-name="Path 30" d="M401.832,399.75h-1.066v-1.066a1.066,1.066,0,0,0-2.132,0v1.066h-1.066a1.066,1.066,0,1,0,0,2.132h1.066v1.066a1.066,1.066,0,0,0,2.132,0v-1.066h1.066a1.066,1.066,0,1,0,0-2.132Z" transform="translate(-354.229 -355.226)" fill="#fff"/>
      <path id="Path_31" data-name="Path 31" d="M363.167,6.4a3.2,3.2,0,1,0-3.2-3.2A3.2,3.2,0,0,0,363.167,6.4Zm0-4.265A1.066,1.066,0,1,1,362.1,3.2,1.067,1.067,0,0,1,363.167,2.133Z" transform="translate(-321.591 -0.001)" fill="#fff"/>
      <path id="Path_32" data-name="Path 32" d="M425.7,173.619a3.2,3.2,0,1,0,3.2,3.2A3.2,3.2,0,0,0,425.7,173.619Zm0,4.265a1.066,1.066,0,1,1,1.066-1.066A1.067,1.067,0,0,1,425.7,177.884Z" transform="translate(-377.457 -155.109)" fill="#fff"/>
      <path id="Path_33" data-name="Path 33" d="M171.7,42.017a3.2,3.2,0,1,0-3.2-3.2A3.2,3.2,0,0,0,171.7,42.017Zm0-4.265a1.066,1.066,0,1,1-1.066,1.066A1.067,1.067,0,0,1,171.7,37.752Z" transform="translate(-150.538 -31.822)" fill="#fff"/>
      <path id="Path_34" data-name="Path 34" d="M431.322,285.124a1.066,1.066,0,1,0-1.066,1.066A1.068,1.068,0,0,0,431.322,285.124Z" transform="translate(-383.432 -253.773)" fill="#fff"/>
      <path id="Path_35" data-name="Path 35" d="M326.255,77.192a1.066,1.066,0,1,0-1.066-1.066A1.068,1.068,0,0,0,326.255,77.192Z" transform="translate(-290.519 -67.057)" fill="#fff"/>
      <path id="Path_36" data-name="Path 36" d="M460.254,359.057a1.066,1.066,0,1,0,1.066,1.066A1.068,1.068,0,0,0,460.254,359.057Z" transform="translate(-410.232 -320.776)" fill="#fff"/>
      <path id="Path_37" data-name="Path 37" d="M130.258,12.133a1.066,1.066,0,1,0-1.066-1.066A1.068,1.068,0,0,0,130.258,12.133Z" transform="translate(-115.418 -8.935)" fill="#fff"/>
    </g>
  </g>
</svg>
