<svg xmlns="http://www.w3.org/2000/svg" viewBox="0 0 120.35 65.69"><defs><style>.cls-1{fill:#fff;}</style></defs><title>TBE Logo transparent</title><g id="Layer_2" data-name="Layer 2"><g id="Layer_1-2" data-name="Layer 1"><path class="cls-1" d="M0,0A31.64,31.64,0,0,0,1.6,5a33.52,33.52,0,0,0,3.26,6,38.83,38.83,0,0,0,8.54,8.76C19.14,24.3,23,26.33,31.1,31.23c2.74,1.67,6.9,4.22,12,7.49C41.63,38,40.41,37.37,39.52,37s-1.93-.86-2.91-1.28l-2-.86L30.17,33c-1.71-.68-4.78-2-7.87-3.58A60.17,60.17,0,0,1,13,23.81a56.51,56.51,0,0,1-4.7-3.94,13.92,13.92,0,0,0,4.92,7.19A52.54,52.54,0,0,0,22.4,33,103.3,103.3,0,0,0,32,37.37a86.39,86.39,0,0,1,10.61,4.74l1.11.63a64.12,64.12,0,0,1,6.3,4,23.59,23.59,0,0,1,5.54,6.44,31.57,31.57,0,0,1,4.58,12.46c.3-3,1.11-14-4.89-22.62a41.08,41.08,0,0,0-7-7.43,52.94,52.94,0,0,0-7.76-4.9c-8.42-4.77-9-4.75-13.6-7.49a118.07,118.07,0,0,1-10.57-7.12A82.28,82.28,0,0,1,7.5,8.68,72.23,72.23,0,0,1,0,0Z"/><path class="cls-1" d="M120.35,0a33.85,33.85,0,0,1-1.6,5,33.52,33.52,0,0,1-3.26,6,38.64,38.64,0,0,1-8.55,8.76c-5.74,4.49-9.61,6.52-17.7,11.42-2.74,1.67-6.89,4.22-12,7.49,1.44-.76,2.65-1.35,3.54-1.76s1.93-.86,2.92-1.28l2.05-.86L90.18,33c1.71-.68,4.78-2,7.87-3.58a60.15,60.15,0,0,0,9.31-5.65,54.88,54.88,0,0,0,4.7-3.94,13.68,13.68,0,0,1-1.43,3.3,14.43,14.43,0,0,1-3.48,3.89A52.49,52.49,0,0,1,97.94,33a104.13,104.13,0,0,1-9.63,4.4A86.39,86.39,0,0,0,77.7,42.11l-1.12.63a65.35,65.35,0,0,0-6.3,4,23.52,23.52,0,0,0-5.53,6.44,31.42,31.42,0,0,0-4.58,12.46c-.31-3-1.11-14,4.88-22.62a41.35,41.35,0,0,1,7-7.43,52.94,52.94,0,0,1,7.76-4.9c8.42-4.77,9-4.75,13.6-7.49A121.19,121.19,0,0,0,104,16.13a83.27,83.27,0,0,0,8.82-7.45A73.15,73.15,0,0,0,120.35,0Z"/></g></g></svg>