<svg xmlns="http://www.w3.org/2000/svg" width="54.874" height="54.874" viewBox="0 0 54.874 54.874">
  <path id="trust" d="M53.088,28.028c-.04-.041-.082-.079-.126-.116L38.543,15.634a11.283,11.283,0,0,0-7.311-2.691h-.039a11.207,11.207,0,0,0-7.935,3.3l-1.945,1.945a2.153,2.153,0,0,1-3,.03,2.08,2.08,0,0,1-.63-1.5,2.28,2.28,0,0,1,.659-1.625l.049-.05,4.217-4.5A18.29,18.29,0,0,1,35.16,4.8l16.215,13.22A2.143,2.143,0,0,0,54.083,14.7L37.258.982A2.145,2.145,0,0,0,35.9.5,22.573,22.573,0,0,0,24.5,3.612,22.458,22.458,0,0,0,13.08.5a2.144,2.144,0,0,0-1.516.627L.628,12.059a2.143,2.143,0,1,0,3.03,3.032L13.947,4.808a18.162,18.162,0,0,1,6.72,1.636q-.614.564-1.187,1.174l-4.2,4.479a6.592,6.592,0,0,0-1.887,4.67,6.41,6.41,0,0,0,10.948,4.456l1.945-1.945a6.946,6.946,0,0,1,4.918-2.047h.024A7,7,0,0,1,35.764,18.9L50.1,31.109a1.824,1.824,0,0,1-.049,2.527,1.834,1.834,0,0,1-2.576,0l-.44-.44a2.144,2.144,0,1,0-3.031,3.031l.44.44c.129.13.265.252.4.368a2.122,2.122,0,0,0,.2.238,1.822,1.822,0,0,1-2.576,2.577l-.017-.017-.71-.705a2.143,2.143,0,0,0-3.031,3.031l.489.489h0a2.17,2.17,0,0,1,.614,1.45,1.739,1.739,0,0,1-.46,1.29,1.842,1.842,0,0,1-2.588-.154c-.04-.04-.082-.079-.125-.116l-.322-.274a2.144,2.144,0,0,0-2.906,3.147,1.89,1.89,0,0,1,.564,1.318,1.732,1.732,0,0,1-.508,1.256,1.85,1.85,0,0,1-2.616-.039l-.3-.3a6.225,6.225,0,0,0-1.387-6.673h0A6.339,6.339,0,0,0,26.318,41.9a6.1,6.1,0,0,0-5.525-6.958,6.016,6.016,0,0,0-1.772-3.81A6.08,6.08,0,0,0,15.2,29.366,6.1,6.1,0,0,0,4.807,25.526l-3,2.892-.027.026A6.1,6.1,0,0,0,5,38.769,6.092,6.092,0,0,0,6.786,43.3a5.857,5.857,0,0,0,4.181,1.716h.091a6.065,6.065,0,0,0,6.027,5.252c.131,0,.262-.006.394-.014a6.224,6.224,0,0,0,10.437,3.388A6.155,6.155,0,0,0,32.2,55.374,6.067,6.067,0,0,0,36.509,53.6a5.973,5.973,0,0,0,1.711-3.464,5.843,5.843,0,0,0,5.872-5.477,6.093,6.093,0,0,0,5.775-6.3,6.051,6.051,0,0,0,3.22-1.685A6.116,6.116,0,0,0,53.088,28.028Zm-45.669,6-.027.026A1.822,1.822,0,0,1,4.8,31.486L7.8,28.6l.027-.026a1.822,1.822,0,0,1,2.735,2.394c-.056.051-.112.1-.167.158l-2.2,2.156Zm4.925,6.156a1.844,1.844,0,0,1-2.526.085A1.825,1.825,0,0,1,9.811,37.7l1.373-1.346,2.22-2.143.027-.026c.058-.058.113-.116.167-.176a1.824,1.824,0,0,1,2.393.159A1.667,1.667,0,0,1,16,36.6Zm6.083,5.235-.008.008a1.822,1.822,0,1,1-2.58-2.573l3.14-3.108.008-.008a1.822,1.822,0,0,1,2.58,2.573Zm7.715,3.9-.027.028-1.154,1.2a1.931,1.931,0,0,1-2.717-.011,1.989,1.989,0,0,1-.582-1.4,1.865,1.865,0,0,1,.538-1.352l1.286-1.286a1.744,1.744,0,0,1,1.244-.513,2,2,0,0,1,1.41.605A1.932,1.932,0,0,1,26.141,49.312Zm0,0" transform="translate(0 -0.5)" fill="#fff"/>
</svg>
