<svg xmlns="http://www.w3.org/2000/svg" viewBox="0 0 40.23 33.02"><defs><style>.cls-1{fill:#fff684;}</style></defs><title>Twitter</title><g id="Layer_2" data-name="Layer 2"><g id="Layer_1-2" data-name="Layer 1"><path id="Twitter" class="cls-1" d="M19.87,10.37a8.57,8.57,0,0,1,0-4.15c0-.1.07-.26.13-.45a8.4,8.4,0,0,1,2.76-4,8,8,0,0,1,3-1.5,8.43,8.43,0,0,1,4.77.25A8.77,8.77,0,0,1,34,2.65,16.64,16.64,0,0,0,36.9,1.8,15.89,15.89,0,0,0,39.16.67l0,0A8.13,8.13,0,0,1,37.6,3.5a8.27,8.27,0,0,1-2,1.71l.07,0A16.22,16.22,0,0,0,40.23,4l0,.1a16.58,16.58,0,0,1-4,4.09l0,.27a24.9,24.9,0,0,1-1.11,8A24,24,0,0,1,21.35,31.5C11.05,35.68,1.22,30,0,29.3H.11a17,17,0,0,0,8.27-1.24,15.94,15.94,0,0,0,3.73-2.26l-.08,0a8.94,8.94,0,0,1-4.94-2A8.31,8.31,0,0,1,4.49,20l.08,0a10.18,10.18,0,0,0,2.53.07A9.91,9.91,0,0,0,8.19,20a9.51,9.51,0,0,1-5.95-4.91,8.12,8.12,0,0,1-.68-3.47l.1.05a8.49,8.49,0,0,0,1.79.75,8.3,8.3,0,0,0,1.86.3l-.16-.14a9.35,9.35,0,0,1-3.54-7,8.24,8.24,0,0,1,1-3.82l0-.09A23.65,23.65,0,0,0,7.06,5.84a24.46,24.46,0,0,0,12.76,4.61Z"/></g></g></svg>