<svg xmlns="http://www.w3.org/2000/svg" width="40.226" height="33.024" viewBox="0 0 40.226 33.024">
  <path id="Twitter" d="M207.419,254.4a8.644,8.644,0,0,1,.044-4.149c.027-.1.07-.262.131-.454a8.419,8.419,0,0,1,2.755-4.044,8.071,8.071,0,0,1,3.025-1.5,8.51,8.51,0,0,1,4.771.258,8.744,8.744,0,0,1,3.375,2.167,16.153,16.153,0,0,0,2.932-.855,15.38,15.38,0,0,0,2.257-1.124l-.012.041a8.217,8.217,0,0,1-1.548,2.788,8.133,8.133,0,0,1-2.013,1.71l.07.031a16.174,16.174,0,0,0,4.573-1.255l-.035.105a16.448,16.448,0,0,1-4.015,4.088l-.023.269a24.725,24.725,0,0,1-1.117,7.989,23.981,23.981,0,0,1-13.684,15.064c-10.3,4.175-20.135-1.477-21.352-2.2l.113-.016a16.913,16.913,0,0,0,8.266-1.235,15.7,15.7,0,0,0,3.734-2.263l-.087.018a8.854,8.854,0,0,1-4.936-1.956,8.3,8.3,0,0,1-2.6-3.807l.076.035a9.823,9.823,0,0,0,2.532.07,9.711,9.711,0,0,0,1.093-.176,9.529,9.529,0,0,1-5.952-4.913,8.089,8.089,0,0,1-.675-3.469l.1.047a8.114,8.114,0,0,0,1.785.753,7.965,7.965,0,0,0,1.857.3l-.151-.141a9.334,9.334,0,0,1-3.547-7.027,8.22,8.22,0,0,1,1.034-3.82l.047-.094a23.237,23.237,0,0,0,4.375,4.236,24.444,24.444,0,0,0,12.753,4.608Z" transform="translate(-187.553 -244.03)" fill="#1c9dee"/>
</svg>
