<svg xmlns="http://www.w3.org/2000/svg" width="49.23" height="33.786" viewBox="0 0 49.23 33.786">
  <g id="Youtube" transform="translate(0 0)">
    <path id="Path_9" data-name="Path 9" d="M154.677,299.647c.022-2.055.084-4.334.212-6.811.123-2.393.246-3.767,1.127-5.177a8.7,8.7,0,0,1,1.913-2.1,7.842,7.842,0,0,1,2.041-1.148,8.628,8.628,0,0,1,2.168-.446c2.123-.246,3.443-.255,3.443-.255,2.64-.018,1.289-.15,6.632-.255,4.506-.088,8-.044,11.287,0,9.129.123,6.873.343,8.673.255a30.873,30.873,0,0,1,5.8.51,5.722,5.722,0,0,1,3.316,1.722,6.8,6.8,0,0,1,1.467,2.551,16.994,16.994,0,0,1,.957,4.209,58.683,58.683,0,0,1,.127,6.568c-.013,2.047-.051,3.852-.127,7.461a24,24,0,0,1-.574,4.272,7.514,7.514,0,0,1-.765,2.1,6.9,6.9,0,0,1-1.212,1.594,6.629,6.629,0,0,1-1.722,1.212,6.9,6.9,0,0,1-2.678.638c-1.767.119-3.522.454-5.293.446-2.376-.01,15.319.116-11.8.191,0,0-4.692.013-10.267-.064-8.19-.113-2.533-.226-5.293-.255a10.633,10.633,0,0,1-2.933-.319,8.816,8.816,0,0,1-2.678-1.212,8.139,8.139,0,0,1-2.1-2.1,8.779,8.779,0,0,1-1.356-4.06A61.7,61.7,0,0,1,154.677,299.647Z" transform="translate(-154.634 -283.398)" fill="#a7a7a7"/>
    <path id="Path_10" data-name="Path 10" d="M257.9,331.552V346.6l12.308-7.525Z" transform="translate(-237.962 -322.255)"/>
  </g>
</svg>
