<svg xmlns="http://www.w3.org/2000/svg" viewBox="0 0 49.25 33.78"><defs><style>.cls-1{fill:#fff684;}</style></defs><title>Asset 9</title><g id="Layer_2" data-name="Layer 2"><g id="Layer_1-2" data-name="Layer 1"><path id="Path_9" data-name="Path 9" class="cls-1" d="M.05,16.24c0-2,.08-4.33.21-6.81S.51,5.66,1.39,4.25A8.66,8.66,0,0,1,3.3,2.15,8,8,0,0,1,5.34,1,8.91,8.91,0,0,1,7.51.56,32.56,32.56,0,0,1,11,.31c2.64,0,1.29-.15,6.63-.26,4.51-.09,8,0,11.29,0,9.13.12,6.87.34,8.67.26a29.65,29.65,0,0,1,5.8.51,5.67,5.67,0,0,1,3.32,1.72,6.79,6.79,0,0,1,1.47,2.55,17.36,17.36,0,0,1,.95,4.21,57.59,57.59,0,0,1,.13,6.57c0,2-.05,3.85-.13,7.46a23.69,23.69,0,0,1-.57,4.27,7.58,7.58,0,0,1-.77,2.1,6.69,6.69,0,0,1-1.21,1.59,6.23,6.23,0,0,1-1.72,1.21,6.72,6.72,0,0,1-2.68.64c-1.76.12-3.52.46-5.29.45-2.38,0,15.32.11-11.8.19,0,0-4.69,0-10.27-.06-8.19-.12-2.53-.23-5.29-.26a10.67,10.67,0,0,1-2.93-.32,8.77,8.77,0,0,1-2.68-1.21,8.22,8.22,0,0,1-2.1-2.1A8.8,8.8,0,0,1,.41,25.77,60.68,60.68,0,0,1,.05,16.24Z"/><path id="Path_10" data-name="Path 10" d="M19.94,9.29V24.34l12.31-7.53Z"/></g></g></svg>