<svg id="Youtube" xmlns="http://www.w3.org/2000/svg" width="40.469" height="27.773" viewBox="0 0 40.469 27.773">
  <path id="Path_9" data-name="Path 9" d="M154.669,296.755c.018-1.689.069-3.563.174-5.6.1-1.967.2-3.1.927-4.256a7.149,7.149,0,0,1,1.573-1.73,6.446,6.446,0,0,1,1.677-.944,7.091,7.091,0,0,1,1.782-.367c1.745-.2,2.831-.21,2.831-.21,2.17-.015,1.059-.124,5.452-.21,3.7-.073,6.579-.036,9.278,0,7.5.1,5.649.282,7.129.21a25.38,25.38,0,0,1,4.77.419,4.7,4.7,0,0,1,2.726,1.415,5.593,5.593,0,0,1,1.206,2.1,13.969,13.969,0,0,1,.786,3.46,48.24,48.24,0,0,1,.1,5.4c-.01,1.683-.042,3.166-.1,6.133a19.73,19.73,0,0,1-.472,3.512,6.179,6.179,0,0,1-.629,1.73,5.677,5.677,0,0,1-1,1.31,5.45,5.45,0,0,1-1.415,1,5.675,5.675,0,0,1-2.2.524c-1.452.1-2.9.373-4.351.367-1.953-.008,12.593.1-9.7.157,0,0-3.857.011-8.44-.053-6.733-.092-2.082-.186-4.351-.21a8.74,8.74,0,0,1-2.411-.262,7.248,7.248,0,0,1-2.2-1,6.69,6.69,0,0,1-1.73-1.73,7.216,7.216,0,0,1-1.115-3.338A50.719,50.719,0,0,1,154.669,296.755Z" transform="translate(-154.634 -283.398)" fill="#f90400"/>
  <path id="Path_10" data-name="Path 10" d="M257.9,331.552v12.371l10.117-6.186Z" transform="translate(-241.511 -323.909)" fill="#fff"/>
</svg>
